<mxfile host="app.diagrams.net" agent="Mozilla/5.0 (Windows NT 10.0; Win64; x64) AppleWebKit/537.36 (KHTML, like Gecko) Chrome/138.0.0.0 Safari/537.36 Edg/138.0.0.0" version="27.2.0">
  <diagram name="Datenquellen" id="OlZZAPoBLNmnHcz77i11">
    <mxGraphModel dx="2836" dy="1572" grid="1" gridSize="4" guides="1" tooltips="1" connect="1" arrows="1" fold="1" page="1" pageScale="1" pageWidth="827" pageHeight="1169" math="0" shadow="0">
      <root>
        <mxCell id="0" />
        <mxCell id="1" parent="0" />
        <mxCell id="GGNP_rc6r0dh1QSNLfma-2" value="OPC UA Server&#xa;(Docker)" style="rounded=1;whiteSpace=wrap;html=1;" vertex="1" parent="1">
          <mxGeometry x="350" y="260" width="140" height="60" as="geometry" />
        </mxCell>
        <mxCell id="GGNP_rc6r0dh1QSNLfma-3" value="Node.js Simulator&#xa;(Prozess- &amp; Betriebsdaten)" style="rounded=1;whiteSpace=wrap;html=1;" vertex="1" parent="1">
          <mxGeometry x="80" y="150" width="190" height="60" as="geometry" />
        </mxCell>
        <mxCell id="GGNP_rc6r0dh1QSNLfma-4" value="Maschinensimulator&#xa;(PackML)" style="rounded=1;whiteSpace=wrap;html=1;" vertex="1" parent="1">
          <mxGeometry x="80" y="320" width="190" height="60" as="geometry" />
        </mxCell>
        <mxCell id="GGNP_rc6r0dh1QSNLfma-5" value="Agile&amp;nbsp;(PLM) / PSI Penta&lt;br&gt;(CAD, Stücklisten&lt;br&gt;Spezifikationen)" style="rounded=1;whiteSpace=wrap;html=1;" vertex="1" parent="1">
          <mxGeometry x="80" y="470" width="190" height="60" as="geometry" />
        </mxCell>
        <mxCell id="GGNP_rc6r0dh1QSNLfma-7" style="edgeStyle=orthogonalEdgeStyle;endArrow=block;html=1;" edge="1" parent="1" source="GGNP_rc6r0dh1QSNLfma-3" target="GGNP_rc6r0dh1QSNLfma-2">
          <mxGeometry relative="1" as="geometry" />
        </mxCell>
        <mxCell id="GGNP_rc6r0dh1QSNLfma-8" style="edgeStyle=orthogonalEdgeStyle;endArrow=block;html=1;" edge="1" parent="1" source="GGNP_rc6r0dh1QSNLfma-4" target="GGNP_rc6r0dh1QSNLfma-2">
          <mxGeometry relative="1" as="geometry" />
        </mxCell>
        <mxCell id="GGNP_rc6r0dh1QSNLfma-9" style="edgeStyle=orthogonalEdgeStyle;endArrow=block;html=1;" edge="1" parent="1" source="GGNP_rc6r0dh1QSNLfma-2">
          <mxGeometry relative="1" as="geometry">
            <mxPoint x="618.25" y="262.0000000000002" as="targetPoint" />
          </mxGeometry>
        </mxCell>
        <mxCell id="GGNP_rc6r0dh1QSNLfma-10" style="edgeStyle=orthogonalEdgeStyle;endArrow=block;dashed=1;html=1;" edge="1" parent="1" source="GGNP_rc6r0dh1QSNLfma-5">
          <mxGeometry relative="1" as="geometry">
            <mxPoint x="728.3333333333335" y="362" as="targetPoint" />
          </mxGeometry>
        </mxCell>
        <mxCell id="GGNP_rc6r0dh1QSNLfma-12" value="" style="shape=loopLimit;whiteSpace=wrap;html=1;size=60;fillColor=#e3edf8;strokeColor=#D4E1F5;strokeWidth=2;" vertex="1" parent="1">
          <mxGeometry x="698" y="55" width="320" height="175" as="geometry" />
        </mxCell>
        <mxCell id="GGNP_rc6r0dh1QSNLfma-13" value="&lt;font style=&quot;font-size: 14px;&quot;&gt;AAS&lt;/font&gt;" style="text;html=1;align=center;verticalAlign=middle;whiteSpace=wrap;rounded=0;" vertex="1" parent="1">
          <mxGeometry x="766.25" y="66" width="183.5" height="30" as="geometry" />
        </mxCell>
        <mxCell id="GGNP_rc6r0dh1QSNLfma-14" value="" style="shape=loopLimit;whiteSpace=wrap;html=1;size=30;strokeColor=#D4E1F5;strokeWidth=2;" vertex="1" parent="1">
          <mxGeometry x="758" y="110" width="200" height="120" as="geometry" />
        </mxCell>
        <mxCell id="GGNP_rc6r0dh1QSNLfma-15" value="" style="shape=ext;double=1;rounded=0;whiteSpace=wrap;html=1;strokeColor=none;" vertex="1" parent="1">
          <mxGeometry x="759" y="192" width="198" height="39" as="geometry" />
        </mxCell>
        <mxCell id="GGNP_rc6r0dh1QSNLfma-16" value="&lt;font style=&quot;font-size: 14px;&quot;&gt;robocell&lt;/font&gt;" style="shape=loopLimit;whiteSpace=wrap;html=1;size=22;fillColor=#d5e8d4;strokeColor=#B9E0A5;strokeWidth=2;" vertex="1" parent="1">
          <mxGeometry x="794" y="138" width="128" height="92" as="geometry" />
        </mxCell>
        <mxCell id="GGNP_rc6r0dh1QSNLfma-50" value="" style="shape=loopLimit;whiteSpace=wrap;html=1;size=60;fillColor=#e3edf8;strokeColor=#D4E1F5;strokeWidth=2;" vertex="1" parent="1">
          <mxGeometry x="2664" y="76" width="320" height="175" as="geometry" />
        </mxCell>
        <mxCell id="GGNP_rc6r0dh1QSNLfma-51" value="&lt;font style=&quot;font-size: 18px;&quot;&gt;AAS&lt;/font&gt;" style="text;html=1;align=center;verticalAlign=middle;whiteSpace=wrap;rounded=0;" vertex="1" parent="1">
          <mxGeometry x="2732.25" y="87" width="183.5" height="30" as="geometry" />
        </mxCell>
        <mxCell id="GGNP_rc6r0dh1QSNLfma-52" value="" style="shape=loopLimit;whiteSpace=wrap;html=1;size=30;strokeColor=#D4E1F5;strokeWidth=2;" vertex="1" parent="1">
          <mxGeometry x="2724" y="131" width="200" height="120" as="geometry" />
        </mxCell>
        <mxCell id="GGNP_rc6r0dh1QSNLfma-53" value="" style="shape=ext;double=1;rounded=0;whiteSpace=wrap;html=1;strokeColor=none;" vertex="1" parent="1">
          <mxGeometry x="2725" y="213" width="198" height="39" as="geometry" />
        </mxCell>
        <mxCell id="GGNP_rc6r0dh1QSNLfma-54" value="&lt;font style=&quot;font-size: 16px;&quot;&gt;robocell&lt;/font&gt;" style="shape=loopLimit;whiteSpace=wrap;html=1;size=22;fillColor=#D5E8D4;strokeColor=#D5E8D4;strokeWidth=2;" vertex="1" parent="1">
          <mxGeometry x="2760" y="159" width="128" height="92" as="geometry" />
        </mxCell>
        <mxCell id="GGNP_rc6r0dh1QSNLfma-69" value="" style="shape=loopLimit;whiteSpace=wrap;html=1;size=60;fillColor=#e3edf8;strokeColor=#D4E1F5;strokeWidth=2;" vertex="1" parent="1">
          <mxGeometry x="932" y="624" width="320" height="175" as="geometry" />
        </mxCell>
        <mxCell id="GGNP_rc6r0dh1QSNLfma-70" value="&lt;font style=&quot;font-size: 18px;&quot;&gt;AAS&lt;/font&gt;" style="text;html=1;align=center;verticalAlign=middle;whiteSpace=wrap;rounded=0;" vertex="1" parent="1">
          <mxGeometry x="1000.25" y="635" width="183.5" height="30" as="geometry" />
        </mxCell>
        <mxCell id="GGNP_rc6r0dh1QSNLfma-71" value="" style="shape=loopLimit;whiteSpace=wrap;html=1;size=30;strokeColor=#D4E1F5;strokeWidth=2;" vertex="1" parent="1">
          <mxGeometry x="992" y="679" width="200" height="120" as="geometry" />
        </mxCell>
        <mxCell id="GGNP_rc6r0dh1QSNLfma-72" value="" style="shape=ext;double=1;rounded=0;whiteSpace=wrap;html=1;strokeColor=none;" vertex="1" parent="1">
          <mxGeometry x="993" y="761" width="198" height="39" as="geometry" />
        </mxCell>
        <mxCell id="GGNP_rc6r0dh1QSNLfma-73" value="&lt;font style=&quot;font-size: 16px;&quot;&gt;robocell&lt;/font&gt;" style="shape=loopLimit;whiteSpace=wrap;html=1;size=22;fillColor=#99CCFF;strokeColor=#99CCFF;strokeWidth=2;" vertex="1" parent="1">
          <mxGeometry x="1028" y="707" width="128" height="92" as="geometry" />
        </mxCell>
        <mxCell id="GGNP_rc6r0dh1QSNLfma-78" value="" style="shape=loopLimit;whiteSpace=wrap;html=1;size=60;fillColor=#e3edf8;strokeColor=#D4E1F5;strokeWidth=2;" vertex="1" parent="1">
          <mxGeometry x="2376" y="443" width="320" height="175" as="geometry" />
        </mxCell>
        <mxCell id="GGNP_rc6r0dh1QSNLfma-79" value="&lt;font style=&quot;font-size: 18px;&quot;&gt;AAS&lt;/font&gt;" style="text;html=1;align=center;verticalAlign=middle;whiteSpace=wrap;rounded=0;" vertex="1" parent="1">
          <mxGeometry x="2444.25" y="454" width="183.5" height="30" as="geometry" />
        </mxCell>
        <mxCell id="GGNP_rc6r0dh1QSNLfma-80" value="" style="shape=loopLimit;whiteSpace=wrap;html=1;size=30;strokeColor=#D4E1F5;strokeWidth=2;" vertex="1" parent="1">
          <mxGeometry x="2436" y="498" width="200" height="120" as="geometry" />
        </mxCell>
        <mxCell id="GGNP_rc6r0dh1QSNLfma-81" value="" style="shape=ext;double=1;rounded=0;whiteSpace=wrap;html=1;strokeColor=none;" vertex="1" parent="1">
          <mxGeometry x="2437" y="580" width="198" height="39" as="geometry" />
        </mxCell>
        <mxCell id="GGNP_rc6r0dh1QSNLfma-82" value="&lt;font style=&quot;font-size: 16px;&quot;&gt;robocell&lt;/font&gt;" style="shape=loopLimit;whiteSpace=wrap;html=1;size=22;fillColor=#99CCFF;strokeColor=#99CCFF;strokeWidth=2;" vertex="1" parent="1">
          <mxGeometry x="2472" y="526" width="128" height="92" as="geometry" />
        </mxCell>
        <mxCell id="GGNP_rc6r0dh1QSNLfma-83" value="" style="shape=loopLimit;whiteSpace=wrap;html=1;size=60;fillColor=#e3edf8;strokeColor=#D4E1F5;strokeWidth=2;" vertex="1" parent="1">
          <mxGeometry x="2827" y="443" width="320" height="175" as="geometry" />
        </mxCell>
        <mxCell id="GGNP_rc6r0dh1QSNLfma-84" value="&lt;font style=&quot;font-size: 18px;&quot;&gt;AAS&lt;/font&gt;" style="text;html=1;align=center;verticalAlign=middle;whiteSpace=wrap;rounded=0;" vertex="1" parent="1">
          <mxGeometry x="2895.25" y="454" width="183.5" height="30" as="geometry" />
        </mxCell>
        <mxCell id="GGNP_rc6r0dh1QSNLfma-85" value="" style="shape=loopLimit;whiteSpace=wrap;html=1;size=30;strokeColor=#D4E1F5;strokeWidth=2;" vertex="1" parent="1">
          <mxGeometry x="2887" y="498" width="200" height="120" as="geometry" />
        </mxCell>
        <mxCell id="GGNP_rc6r0dh1QSNLfma-86" value="" style="shape=ext;double=1;rounded=0;whiteSpace=wrap;html=1;strokeColor=none;" vertex="1" parent="1">
          <mxGeometry x="2888" y="580" width="198" height="39" as="geometry" />
        </mxCell>
        <mxCell id="GGNP_rc6r0dh1QSNLfma-87" value="&lt;font style=&quot;font-size: 16px;&quot;&gt;robocell&lt;/font&gt;" style="shape=loopLimit;whiteSpace=wrap;html=1;size=22;fillColor=#99CCFF;strokeColor=#99CCFF;strokeWidth=2;" vertex="1" parent="1">
          <mxGeometry x="2923" y="526" width="128" height="92" as="geometry" />
        </mxCell>
        <mxCell id="GGNP_rc6r0dh1QSNLfma-88" value="" style="strokeWidth=3;html=1;shape=mxgraph.flowchart.annotation_1;align=left;pointerEvents=1;direction=south;strokeColor=#003366;" vertex="1" parent="1">
          <mxGeometry x="2537" y="392" width="449" height="50" as="geometry" />
        </mxCell>
        <mxCell id="GGNP_rc6r0dh1QSNLfma-91" value="OPC UA Server&#xa;(Docker)" style="rounded=1;whiteSpace=wrap;html=1;" vertex="1" parent="1">
          <mxGeometry x="320" y="820" width="140" height="60" as="geometry" />
        </mxCell>
        <mxCell id="GGNP_rc6r0dh1QSNLfma-92" value="Node.js Simulator&#xa;(Prozess- &amp; Betriebsdaten)" style="rounded=1;whiteSpace=wrap;html=1;" vertex="1" parent="1">
          <mxGeometry x="96" y="740" width="190" height="60" as="geometry" />
        </mxCell>
        <mxCell id="GGNP_rc6r0dh1QSNLfma-93" value="Maschinensimulator&#xa;(PackML)" style="rounded=1;whiteSpace=wrap;html=1;" vertex="1" parent="1">
          <mxGeometry x="96" y="910" width="190" height="60" as="geometry" />
        </mxCell>
        <mxCell id="GGNP_rc6r0dh1QSNLfma-94" style="edgeStyle=orthogonalEdgeStyle;endArrow=block;html=1;" edge="1" parent="1" source="GGNP_rc6r0dh1QSNLfma-92" target="GGNP_rc6r0dh1QSNLfma-91">
          <mxGeometry relative="1" as="geometry" />
        </mxCell>
        <mxCell id="GGNP_rc6r0dh1QSNLfma-95" style="edgeStyle=orthogonalEdgeStyle;endArrow=block;html=1;" edge="1" parent="1" source="GGNP_rc6r0dh1QSNLfma-93" target="GGNP_rc6r0dh1QSNLfma-91">
          <mxGeometry relative="1" as="geometry" />
        </mxCell>
        <mxCell id="GGNP_rc6r0dh1QSNLfma-98" value="" style="shape=loopLimit;whiteSpace=wrap;html=1;size=60;fillColor=#e3edf8;strokeColor=#D4E1F5;strokeWidth=2;" vertex="1" parent="1">
          <mxGeometry x="220" y="360" width="320" height="175" as="geometry" />
        </mxCell>
        <mxCell id="GGNP_rc6r0dh1QSNLfma-99" value="&lt;font style=&quot;font-size: 14px;&quot;&gt;Asset Administration Shell&lt;/font&gt;" style="text;html=1;align=center;verticalAlign=middle;whiteSpace=wrap;rounded=0;" vertex="1" parent="1">
          <mxGeometry x="288.25" y="371" width="183.5" height="30" as="geometry" />
        </mxCell>
        <mxCell id="GGNP_rc6r0dh1QSNLfma-100" value="" style="shape=loopLimit;whiteSpace=wrap;html=1;size=30;strokeColor=#D4E1F5;strokeWidth=2;" vertex="1" parent="1">
          <mxGeometry x="280" y="415" width="200" height="120" as="geometry" />
        </mxCell>
        <mxCell id="GGNP_rc6r0dh1QSNLfma-101" value="" style="shape=ext;double=1;rounded=0;whiteSpace=wrap;html=1;strokeColor=none;" vertex="1" parent="1">
          <mxGeometry x="281" y="497" width="198" height="39" as="geometry" />
        </mxCell>
        <mxCell id="GGNP_rc6r0dh1QSNLfma-102" value="&lt;font style=&quot;font-size: 14px;&quot;&gt;Asset&lt;/font&gt;" style="shape=loopLimit;whiteSpace=wrap;html=1;size=22;fillColor=#d5e8d4;strokeColor=#B9E0A5;strokeWidth=2;" vertex="1" parent="1">
          <mxGeometry x="316" y="443" width="128" height="92" as="geometry" />
        </mxCell>
        <mxCell id="GGNP_rc6r0dh1QSNLfma-103" value="&lt;font style=&quot;font-size: 11px;&quot; color=&quot;#808080&quot;&gt;Zertifikate&lt;/font&gt;" style="rounded=1;whiteSpace=wrap;html=1;strokeColor=#808080;" vertex="1" parent="1">
          <mxGeometry x="113" y="434" width="75" height="24" as="geometry" />
        </mxCell>
        <mxCell id="GGNP_rc6r0dh1QSNLfma-104" value="&lt;font style=&quot;font-size: 11px;&quot; color=&quot;#808080&quot;&gt;Daten&lt;/font&gt;" style="rounded=1;whiteSpace=wrap;html=1;strokeColor=#808080;" vertex="1" parent="1">
          <mxGeometry x="113" y="473" width="75" height="24" as="geometry" />
        </mxCell>
        <mxCell id="GGNP_rc6r0dh1QSNLfma-105" value="&lt;font style=&quot;font-size: 11px;&quot; color=&quot;#808080&quot;&gt;...&lt;/font&gt;" style="rounded=1;whiteSpace=wrap;html=1;strokeColor=#808080;" vertex="1" parent="1">
          <mxGeometry x="113" y="512" width="75" height="24" as="geometry" />
        </mxCell>
        <mxCell id="GGNP_rc6r0dh1QSNLfma-106" value="" style="endArrow=none;dashed=1;html=1;dashPattern=1 3;strokeWidth=2;rounded=0;exitX=1;exitY=0.5;exitDx=0;exitDy=0;entryX=0;entryY=0.851;entryDx=0;entryDy=0;entryPerimeter=0;strokeColor=#808080;" edge="1" parent="1">
          <mxGeometry width="50" height="50" relative="1" as="geometry">
            <mxPoint x="188" y="525" as="sourcePoint" />
            <mxPoint x="220" y="524.925" as="targetPoint" />
          </mxGeometry>
        </mxCell>
        <mxCell id="GGNP_rc6r0dh1QSNLfma-107" value="" style="endArrow=none;dashed=1;html=1;dashPattern=1 3;strokeWidth=2;rounded=0;exitX=1;exitY=0.5;exitDx=0;exitDy=0;entryX=0;entryY=0.851;entryDx=0;entryDy=0;entryPerimeter=0;strokeColor=#808080;" edge="1" parent="1">
          <mxGeometry width="50" height="50" relative="1" as="geometry">
            <mxPoint x="188" y="486" as="sourcePoint" />
            <mxPoint x="220" y="486" as="targetPoint" />
          </mxGeometry>
        </mxCell>
        <mxCell id="GGNP_rc6r0dh1QSNLfma-108" value="" style="endArrow=none;dashed=1;html=1;dashPattern=1 3;strokeWidth=2;rounded=0;exitX=1;exitY=0.5;exitDx=0;exitDy=0;entryX=0;entryY=0.851;entryDx=0;entryDy=0;entryPerimeter=0;strokeColor=#808080;" edge="1" parent="1">
          <mxGeometry width="50" height="50" relative="1" as="geometry">
            <mxPoint x="188" y="447" as="sourcePoint" />
            <mxPoint x="220" y="447" as="targetPoint" />
          </mxGeometry>
        </mxCell>
        <mxCell id="GGNP_rc6r0dh1QSNLfma-109" value="" style="shape=curlyBracket;whiteSpace=wrap;html=1;rounded=1;flipH=1;labelPosition=right;verticalLabelPosition=middle;align=left;verticalAlign=middle;strokeColor=#D79B00;fillColor=#ffe6cc;" vertex="1" parent="1">
          <mxGeometry x="549" y="360" width="20" height="175" as="geometry" />
        </mxCell>
        <mxCell id="GGNP_rc6r0dh1QSNLfma-110" value="&lt;font color=&quot;#d79b00&quot;&gt;I 4.0&amp;nbsp;&lt;/font&gt;&lt;div&gt;&lt;font color=&quot;#d79b00&quot;&gt;Komponente&lt;/font&gt;&lt;/div&gt;" style="text;html=1;align=center;verticalAlign=middle;whiteSpace=wrap;rounded=0;" vertex="1" parent="1">
          <mxGeometry x="581" y="432.5" width="66" height="30" as="geometry" />
        </mxCell>
        <mxCell id="GGNP_rc6r0dh1QSNLfma-111" value="&lt;font style=&quot;font-size: 11px;&quot; color=&quot;#808080&quot;&gt;Dokumente&lt;/font&gt;" style="rounded=1;whiteSpace=wrap;html=1;strokeColor=#808080;" vertex="1" parent="1">
          <mxGeometry x="113" y="395" width="75" height="24" as="geometry" />
        </mxCell>
        <mxCell id="GGNP_rc6r0dh1QSNLfma-112" value="" style="endArrow=none;dashed=1;html=1;dashPattern=1 3;strokeWidth=2;rounded=0;exitX=1;exitY=0.5;exitDx=0;exitDy=0;entryX=0;entryY=0.851;entryDx=0;entryDy=0;entryPerimeter=0;strokeColor=#808080;" edge="1" parent="1">
          <mxGeometry width="50" height="50" relative="1" as="geometry">
            <mxPoint x="188" y="408" as="sourcePoint" />
            <mxPoint x="220" y="408" as="targetPoint" />
          </mxGeometry>
        </mxCell>
        <mxCell id="GGNP_rc6r0dh1QSNLfma-113" value="&lt;font style=&quot;font-size: 13px;&quot; color=&quot;#808080&quot;&gt;Dokumentation&lt;/font&gt;" style="rounded=1;whiteSpace=wrap;html=1;strokeColor=#4D4D4D;" vertex="1" parent="1">
          <mxGeometry x="784" y="692" width="120" height="24" as="geometry" />
        </mxCell>
        <mxCell id="GGNP_rc6r0dh1QSNLfma-114" value="&lt;font style=&quot;font-size: 13px;&quot; color=&quot;#808080&quot;&gt;Kontrollkomponente&lt;/font&gt;" style="rounded=1;whiteSpace=wrap;html=1;strokeColor=#4D4D4D;" vertex="1" parent="1">
          <mxGeometry x="784" y="732" width="120" height="24" as="geometry" />
        </mxCell>
        <mxCell id="GGNP_rc6r0dh1QSNLfma-115" value="&lt;font style=&quot;font-size: 13px;&quot; color=&quot;#808080&quot;&gt;Typenschild&lt;/font&gt;" style="rounded=1;whiteSpace=wrap;html=1;strokeColor=#4D4D4D;" vertex="1" parent="1">
          <mxGeometry x="784" y="652" width="120" height="24" as="geometry" />
        </mxCell>
        <mxCell id="GGNP_rc6r0dh1QSNLfma-116" value="&lt;font style=&quot;font-size: 13px;&quot; color=&quot;#808080&quot;&gt;Prozessdaten&lt;/font&gt;" style="rounded=1;whiteSpace=wrap;html=1;strokeColor=#4D4D4D;" vertex="1" parent="1">
          <mxGeometry x="784" y="772" width="120" height="24" as="geometry" />
        </mxCell>
        <mxCell id="GGNP_rc6r0dh1QSNLfma-117" value="" style="endArrow=none;dashed=1;html=1;dashPattern=1 3;strokeWidth=2;rounded=0;exitX=1;exitY=0.5;exitDx=0;exitDy=0;entryX=0.033;entryY=0.233;entryDx=0;entryDy=0;entryPerimeter=0;strokeColor=#4D4D4D;" edge="1" parent="1" target="GGNP_rc6r0dh1QSNLfma-69">
          <mxGeometry width="50" height="50" relative="1" as="geometry">
            <mxPoint x="904" y="665" as="sourcePoint" />
            <mxPoint x="936" y="665" as="targetPoint" />
          </mxGeometry>
        </mxCell>
        <mxCell id="GGNP_rc6r0dh1QSNLfma-118" value="" style="endArrow=none;dashed=1;html=1;dashPattern=1 3;strokeWidth=2;rounded=0;exitX=1;exitY=0.5;exitDx=0;exitDy=0;strokeColor=#4D4D4D;" edge="1" parent="1">
          <mxGeometry width="50" height="50" relative="1" as="geometry">
            <mxPoint x="904" y="703.88" as="sourcePoint" />
            <mxPoint x="932" y="704" as="targetPoint" />
          </mxGeometry>
        </mxCell>
        <mxCell id="GGNP_rc6r0dh1QSNLfma-119" value="" style="endArrow=none;dashed=1;html=1;dashPattern=1 3;strokeWidth=2;rounded=0;exitX=1;exitY=0.5;exitDx=0;exitDy=0;strokeColor=#4D4D4D;" edge="1" parent="1">
          <mxGeometry width="50" height="50" relative="1" as="geometry">
            <mxPoint x="904" y="743.88" as="sourcePoint" />
            <mxPoint x="932" y="744" as="targetPoint" />
          </mxGeometry>
        </mxCell>
        <mxCell id="GGNP_rc6r0dh1QSNLfma-120" value="" style="endArrow=none;dashed=1;html=1;dashPattern=1 3;strokeWidth=2;rounded=0;exitX=1;exitY=0.5;exitDx=0;exitDy=0;strokeColor=#4D4D4D;" edge="1" parent="1">
          <mxGeometry width="50" height="50" relative="1" as="geometry">
            <mxPoint x="904" y="783.88" as="sourcePoint" />
            <mxPoint x="932" y="784" as="targetPoint" />
          </mxGeometry>
        </mxCell>
        <mxCell id="GGNP_rc6r0dh1QSNLfma-126" value="" style="group" vertex="1" connectable="0" parent="1">
          <mxGeometry x="820" y="848" width="536" height="200" as="geometry" />
        </mxCell>
        <mxCell id="GGNP_rc6r0dh1QSNLfma-89" value="" style="group" vertex="1" connectable="0" parent="GGNP_rc6r0dh1QSNLfma-126">
          <mxGeometry y="42.105263157894726" width="536" height="157.89473684210523" as="geometry" />
        </mxCell>
        <mxCell id="GGNP_rc6r0dh1QSNLfma-55" value="" style="shape=loopLimit;whiteSpace=wrap;html=1;size=60;fillColor=#e3edf8;strokeColor=#D4E1F5;strokeWidth=2;" vertex="1" parent="GGNP_rc6r0dh1QSNLfma-89">
          <mxGeometry y="35.47414792487826" width="222.46433203631642" height="121.72501738928818" as="geometry" />
        </mxCell>
        <mxCell id="GGNP_rc6r0dh1QSNLfma-56" value="&lt;font style=&quot;font-size: 18px;&quot;&gt;AAS&lt;/font&gt;" style="text;html=1;align=center;verticalAlign=middle;whiteSpace=wrap;rounded=0;" vertex="1" parent="GGNP_rc6r0dh1QSNLfma-89">
          <mxGeometry x="47.44747081712061" y="43.12543473220496" width="127.56939040207524" height="20.867145838163687" as="geometry" />
        </mxCell>
        <mxCell id="GGNP_rc6r0dh1QSNLfma-57" value="" style="shape=loopLimit;whiteSpace=wrap;html=1;size=30;strokeColor=#D4E1F5;strokeWidth=2;" vertex="1" parent="GGNP_rc6r0dh1QSNLfma-89">
          <mxGeometry x="41.71206225680933" y="73.73058196151169" width="139.04020752269776" height="83.46858335265475" as="geometry" />
        </mxCell>
        <mxCell id="GGNP_rc6r0dh1QSNLfma-58" value="" style="shape=ext;double=1;rounded=0;whiteSpace=wrap;html=1;strokeColor=none;" vertex="1" parent="GGNP_rc6r0dh1QSNLfma-89">
          <mxGeometry x="42.40726329442282" y="130.76744725249245" width="137.64980544747078" height="27.127289589612793" as="geometry" />
        </mxCell>
        <mxCell id="GGNP_rc6r0dh1QSNLfma-59" value="&lt;font style=&quot;font-size: 16px;&quot;&gt;Komponente&lt;/font&gt;&lt;div&gt;&lt;font style=&quot;font-size: 16px;&quot;&gt;1&lt;/font&gt;&lt;/div&gt;" style="shape=loopLimit;whiteSpace=wrap;html=1;size=22;fillColor=#99CCFF;strokeColor=#99CCFF;strokeWidth=2;" vertex="1" parent="GGNP_rc6r0dh1QSNLfma-89">
          <mxGeometry x="66.73929961089492" y="93.20658474379779" width="88.98573281452659" height="63.992580570368645" as="geometry" />
        </mxCell>
        <mxCell id="GGNP_rc6r0dh1QSNLfma-60" value="" style="shape=loopLimit;whiteSpace=wrap;html=1;size=60;fillColor=#e3edf8;strokeColor=#D4E1F5;strokeWidth=2;" vertex="1" parent="GGNP_rc6r0dh1QSNLfma-89">
          <mxGeometry x="313.5356679636836" y="35.47414792487826" width="222.46433203631642" height="121.72501738928818" as="geometry" />
        </mxCell>
        <mxCell id="GGNP_rc6r0dh1QSNLfma-61" value="&lt;font style=&quot;font-size: 18px;&quot;&gt;AAS&lt;/font&gt;" style="text;html=1;align=center;verticalAlign=middle;whiteSpace=wrap;rounded=0;" vertex="1" parent="GGNP_rc6r0dh1QSNLfma-89">
          <mxGeometry x="360.98313878080415" y="43.12543473220496" width="127.56939040207524" height="20.867145838163687" as="geometry" />
        </mxCell>
        <mxCell id="GGNP_rc6r0dh1QSNLfma-62" value="" style="shape=loopLimit;whiteSpace=wrap;html=1;size=30;strokeColor=#D4E1F5;strokeWidth=2;" vertex="1" parent="GGNP_rc6r0dh1QSNLfma-89">
          <mxGeometry x="355.2477302204928" y="73.73058196151169" width="139.04020752269776" height="83.46858335265475" as="geometry" />
        </mxCell>
        <mxCell id="GGNP_rc6r0dh1QSNLfma-63" value="" style="shape=ext;double=1;rounded=0;whiteSpace=wrap;html=1;strokeColor=none;" vertex="1" parent="GGNP_rc6r0dh1QSNLfma-89">
          <mxGeometry x="355.94293125810634" y="130.76744725249245" width="137.64980544747078" height="27.127289589612793" as="geometry" />
        </mxCell>
        <mxCell id="GGNP_rc6r0dh1QSNLfma-64" value="&lt;font style=&quot;font-size: 16px;&quot;&gt;Komponente&lt;/font&gt;&lt;div&gt;&lt;font style=&quot;font-size: 16px;&quot;&gt;2&lt;/font&gt;&lt;/div&gt;" style="shape=loopLimit;whiteSpace=wrap;html=1;size=22;fillColor=#99CCFF;strokeColor=#99CCFF;strokeWidth=2;" vertex="1" parent="GGNP_rc6r0dh1QSNLfma-89">
          <mxGeometry x="380.27496757457845" y="93.20658474379779" width="88.98573281452659" height="63.992580570368645" as="geometry" />
        </mxCell>
        <mxCell id="GGNP_rc6r0dh1QSNLfma-65" value="" style="strokeWidth=3;html=1;shape=mxgraph.flowchart.annotation_1;align=left;pointerEvents=1;direction=south;strokeColor=#003366;" vertex="1" parent="GGNP_rc6r0dh1QSNLfma-89">
          <mxGeometry x="111.92736705577174" width="312.14526588845655" height="34.77857639693948" as="geometry" />
        </mxCell>
        <mxCell id="GGNP_rc6r0dh1QSNLfma-90" value="" style="endArrow=none;html=1;rounded=0;exitX=0;exitY=0.5;exitDx=0;exitDy=0;exitPerimeter=0;strokeColor=#003366;strokeWidth=3;" edge="1" parent="GGNP_rc6r0dh1QSNLfma-126" source="GGNP_rc6r0dh1QSNLfma-65">
          <mxGeometry width="50" height="50" relative="1" as="geometry">
            <mxPoint x="471.68" y="29.82456140350877" as="sourcePoint" />
            <mxPoint x="268" as="targetPoint" />
          </mxGeometry>
        </mxCell>
      </root>
    </mxGraphModel>
  </diagram>
</mxfile>
